<mxfile host="app.diagrams.net" modified="2023-12-18T02:50:39.365Z" agent="Mozilla/5.0 (Windows NT 10.0; Win64; x64) AppleWebKit/537.36 (KHTML, like Gecko) Chrome/120.0.0.0 Safari/537.36" etag="-u-tGnV0nFzU37ml-q00" version="22.1.11" type="github">
  <diagram name="Page-1" id="fw72KA_9OHvPNJTEguOq">
    <mxGraphModel dx="851" dy="675" grid="1" gridSize="10" guides="1" tooltips="1" connect="1" arrows="1" fold="1" page="1" pageScale="1" pageWidth="827" pageHeight="1169" math="0" shadow="0">
      <root>
        <mxCell id="0" />
        <mxCell id="1" parent="0" />
      </root>
    </mxGraphModel>
  </diagram>
</mxfile>
